<svg width="10" height="10" viewBox="0 0 10 10" fill="none" xmlns="http://www.w3.org/2000/svg">
<g clip-path="url(#clip0_296_76)">
<path d="M5 9C7.20914 9 9 7.20914 9 5C9 2.79086 7.20914 1 5 1C2.79086 1 1 2.79086 1 5C1 7.20914 2.79086 9 5 9Z" stroke="white"/>
<path d="M2.53638 4.43671H3.72729C3.85693 4.15386 4.07941 3.92385 4.35778 3.78486C4.63616 3.64587 4.9537 3.60627 5.25769 3.67262C5.56168 3.73896 5.83384 3.90728 6.02899 4.14961C6.22414 4.39195 6.33055 4.69374 6.33055 5.00489C6.33055 5.31603 6.22414 5.61782 6.02899 5.86016C5.83384 6.1025 5.56168 6.27081 5.25769 6.33716C4.9537 6.40351 4.63616 6.3639 4.35778 6.22492C4.07941 6.08593 3.85693 5.85592 3.72729 5.57307H2.53638C2.67581 6.17054 3.03008 6.69587 3.53174 7.04907C4.0334 7.40226 4.64743 7.55866 5.25692 7.48848C5.86642 7.4183 6.42883 7.12645 6.83709 6.66848C7.24535 6.21051 7.47096 5.61841 7.47096 5.00489C7.47096 4.39137 7.24535 3.79926 6.83709 3.3413C6.42883 2.88333 5.86642 2.59148 5.25692 2.5213C4.64743 2.45112 4.0334 2.60751 3.53174 2.96071C3.03008 3.3139 2.67581 3.83924 2.53638 4.43671Z" fill="white"/>
</g>
<defs>
<clipPath id="clip0_296_76">
<rect width="10" height="10" fill="white"/>
</clipPath>
</defs>
</svg>
