<svg className="h-[1em] w-[1em]" viewBox="0 0 81 82" fill="none" xmlns="http://www.w3.org/2000/svg">
<path d="M54.1323 15.815C48.6548 15.815 43.1224 19.5155 43.1224 27.7777V28.8884H52.4838V53.1117H43.1224V53.8192C43.1224 65.2782 34.8193 71.2777 26.6071 71.2777C18.3951 71.2777 10.0917 65.2782 10.0917 53.8192V0.62793H0V81.3722H65.1427V27.7866C65.1427 19.5244 59.6097 15.815 54.1323 15.815Z" fill="white"/>
<path d="M15.601 0.627686V53.9099C15.601 62.1862 21.1333 65.8932 26.6108 65.8932C32.0882 65.8932 37.6205 62.1862 37.6205 53.9099V53.1114H28.26V28.8881H37.6205V27.8239C37.6205 16.3453 45.9238 10.3356 54.1358 10.3356C62.348 10.3356 70.6513 16.3453 70.6513 27.8239V81.3718H80.7438V0.627686H15.601Z" fill="white"/>
</svg>
